<?xml version="1.0" encoding="utf-8"?>
<!-- Generator: Adobe Illustrator 24.0.0, SVG Export Plug-In . SVG Version: 6.00 Build 0)  -->
<svg version="1.1" id="Layer_1" xmlns="http://www.w3.org/2000/svg" xmlns:xlink="http://www.w3.org/1999/xlink" x="0px" y="0px"
	 viewBox="0 0 127 122" style="enable-background:new 0 0 127 122;" xml:space="preserve">
<style type="text/css">
	.st0{fill:#982E54;}
</style>
<g>
	<rect x="53" y="-12" transform="matrix(0.6696 -0.7427 0.7427 0.6696 -24.862 67.111)" class="st0" width="20" height="147"/>
	<path class="st0" d="M15.14,5.56l108.44,97.76l-12.72,14.11L2.42,19.67L15.14,5.56 M15.07,4.15L1.01,19.75l109.92,99.1l14.06-15.6
		L15.07,4.15L15.07,4.15z"/>
</g>
<g>
	
		<rect x="-10.5" y="51.5" transform="matrix(0.7071 -0.7071 0.7071 0.7071 -25.0348 62.5608)" class="st0" width="147" height="20"/>
	<path class="st0" d="M107.9,3.16l13.43,13.44L18.1,119.84L4.66,106.4L107.9,3.16 M107.9,1.75L3.25,106.4l14.85,14.85L122.75,16.6
		L107.9,1.75L107.9,1.75z"/>
</g>
</svg>
